<svg width="99.930603" height="116.570084" viewBox="0 0 99.9306 116.57" fill="none" xmlns="http://www.w3.org/2000/svg" xmlns:xlink="http://www.w3.org/1999/xlink">
	<desc>
			Created with Pixso.
	</desc>
	<defs/>
	<path id="path" d="M88.8 37.48L38.86 4.19C37.92 3.57 36.95 3.01 35.93 2.52C34.92 2.02 33.88 1.6 32.81 1.25C31.74 0.9 30.65 0.62 29.55 0.41C28.44 0.21 27.32 0.08 26.2 0.02C25.07 -0.03 23.95 -0.01 22.83 0.09C21.71 0.19 20.6 0.36 19.5 0.61C18.4 0.85 17.32 1.17 16.27 1.57C15.21 1.96 14.19 2.42 13.2 2.95C12.21 3.49 11.25 4.08 10.34 4.74C9.43 5.4 8.56 6.12 7.75 6.9C6.93 7.67 6.17 8.5 5.47 9.38C4.77 10.26 4.13 11.18 3.55 12.15C2.97 13.11 2.46 14.11 2.02 15.15C1.57 16.18 1.2 17.24 0.9 18.33C0.6 19.41 0.37 20.51 0.22 21.63C0.07 22.74 0 23.86 0 24.99L0 91.57C1.9e-5 92.69 0.07 93.81 0.22 94.93C0.37 96.04 0.6 97.14 0.9 98.23C1.2 99.32 1.57 100.38 2.02 101.41C2.46 102.45 2.97 103.45 3.55 104.41C4.13 105.38 4.77 106.3 5.47 107.18C6.18 108.06 6.93 108.89 7.75 109.67C8.57 110.44 9.43 111.16 10.34 111.82C11.25 112.48 12.21 113.08 13.2 113.61C14.19 114.14 15.22 114.6 16.27 114.99C17.33 115.39 18.4 115.71 19.5 115.95C20.6 116.2 21.71 116.37 22.83 116.47C23.96 116.57 25.08 116.59 26.2 116.54C27.33 116.48 28.44 116.35 29.55 116.15C30.66 115.94 31.75 115.66 32.82 115.31C33.89 114.96 34.93 114.54 35.94 114.04C36.95 113.55 37.93 112.99 38.86 112.37L88.8 79.08C89.22 78.79 89.64 78.5 90.05 78.19C90.45 77.88 90.85 77.56 91.24 77.22C91.63 76.89 92 76.54 92.37 76.18C92.74 75.83 93.09 75.46 93.44 75.08C93.78 74.7 94.11 74.31 94.43 73.91C94.75 73.51 95.06 73.1 95.36 72.69C95.65 72.27 95.93 71.84 96.2 71.4C96.47 70.97 96.73 70.52 96.97 70.07C97.21 69.62 97.44 69.16 97.65 68.7C97.86 68.23 98.06 67.76 98.25 67.28C98.43 66.81 98.6 66.32 98.76 65.84C98.91 65.35 99.05 64.85 99.17 64.36C99.3 63.86 99.41 63.36 99.5 62.86C99.6 62.36 99.67 61.85 99.74 61.34C99.8 60.83 99.85 60.32 99.88 59.81C99.91 59.3 99.93 58.79 99.93 58.28C99.93 57.77 99.91 57.25 99.88 56.74C99.85 56.23 99.8 55.72 99.74 55.21C99.67 54.71 99.6 54.2 99.5 53.7C99.41 53.19 99.3 52.69 99.17 52.2C99.05 51.7 98.91 51.21 98.76 50.72C98.6 50.23 98.43 49.75 98.25 49.27C98.06 48.79 97.86 48.32 97.65 47.86C97.44 47.39 97.21 46.93 96.97 46.48C96.73 46.03 96.47 45.59 96.2 45.15C95.93 44.72 95.65 44.29 95.36 43.87C95.06 43.45 94.75 43.04 94.43 42.64C94.11 42.24 93.78 41.85 93.44 41.48C93.09 41.1 92.74 40.73 92.37 40.37C92 40.01 91.63 39.67 91.24 39.33C90.85 39 90.45 38.68 90.05 38.37C89.64 38.06 89.22 37.76 88.8 37.48Z" fill="#000000" fill-opacity="1.000000" fill-rule="nonzero"/>
</svg>
